{
  "accessors": [
    {
      "bufferView": 2,
      "componentType": 5126,
      "count": 5849,
      "max": [
        94.099197387695312,
        148.75570678710938,
        184.80099487304688
      ],
      "min": [
        -94.099197387695312,
        -148.75570678710938,
        -7.6533999443054199
      ],
      "type": "VEC3"
    },
    {
      "bufferView": 2,
      "byteOffset": 70188,
      "componentType": 5126,
      "count": 5849,
      "max": [
        1,
        0.99904024600982666,
        1
      ],
      "min": [
        -1,
        -0.99965673685073853,
        -1
      ],
      "type": "VEC3"
    },
    {
      "bufferView": 3,
      "componentType": 5126,
      "count": 5849,
      "max": [
        1,
        1,
        0.99993240833282471,
        1
      ],
      "min": [
        -1,
        -1,
        -0.99904352426528931,
        -1
      ],
      "type": "VEC4"
    },
    {
      "bufferView": 1,
      "componentType": 5126,
      "count": 5849,
      "max": [
        0.99269998073577881,
        0.98849999904632568
      ],
      "min": [
        0.0057999999262392521,
        0.0057999999262392521
      ],
      "type": "VEC2"
    },
    {
      "bufferView": 0,
      "componentType": 5125,
      "count": 10452,
      "max": [
        5848
      ],
      "min": [
        0
      ],
      "type": "SCALAR"
    },
    {
      "bufferView": 2,
      "byteOffset": 140376,
      "componentType": 5126,
      "count": 3050,
      "max": [
        91.576400756835938,
        148.75570678710938,
        206.28739929199219
      ],
      "min": [
        -91.576400756835938,
        -143.02290344238281,
        -3.2815999984741211
      ],
      "type": "VEC3"
    },
    {
      "bufferView": 2,
      "byteOffset": 176976,
      "componentType": 5126,
      "count": 3050,
      "max": [
        1,
        0.99986553192138672,
        0.99999940395355225
      ],
      "min": [
        -1,
        -1,
        -1
      ],
      "type": "VEC3"
    },
    {
      "bufferView": 3,
      "byteOffset": 93584,
      "componentType": 5126,
      "count": 3050,
      "max": [
        1,
        1,
        0.99974894523620605,
        1
      ],
      "min": [
        -1,
        -0.99993216991424561,
        -0.99992579221725464,
        -1
      ],
      "type": "VEC4"
    },
    {
      "bufferView": 1,
      "byteOffset": 46792,
      "componentType": 5126,
      "count": 3050,
      "max": [
        0.99409997463226318,
        0.99419999122619629
      ],
      "min": [
        0.0057999999262392521,
        0.0057999999262392521
      ],
      "type": "VEC2"
    },
    {
      "bufferView": 0,
      "byteOffset": 41808,
      "componentType": 5125,
      "count": 11958,
      "max": [
        3049
      ],
      "min": [
        0
      ],
      "type": "SCALAR"
    }
  ],
  "asset": {
    "extras": {
      "author": "Willy Decarpentrie (https://sketchfab.com/skudgee)",
      "license": "CC-BY-4.0 (http://creativecommons.org/licenses/by/4.0/)",
      "source": "https://sketchfab.com/models/9d28a36e12c24f94b852610677706552",
      "title": "Tank"
    },
    "generator": "Sketchfab-3.19.6",
    "version": "2.0"
  },
  "bufferViews": [
    {
      "buffer": 0,
      "byteLength": 89640,
      "byteOffset": 0,
      "name": "floatBufferViews",
      "target": 34963
    },
    {
      "buffer": 0,
      "byteLength": 71192,
      "byteOffset": 89640,
      "byteStride": 8,
      "name": "floatBufferViews",
      "target": 34962
    },
    {
      "buffer": 0,
      "byteLength": 213576,
      "byteOffset": 160832,
      "byteStride": 12,
      "name": "floatBufferViews",
      "target": 34962
    },
    {
      "buffer": 0,
      "byteLength": 142384,
      "byteOffset": 374408,
      "byteStride": 16,
      "name": "floatBufferViews",
      "target": 34962
    }
  ],
  "buffers": [
    {
      "byteLength": 516792,
      "uri": "scene.bin"
    }
  ],
  "images": [
    {
      "uri": "textures/Standard_normal.jpeg"
    },
    {
      "uri": "textures/Standard_metallicRoughness.png"
    },
    {
      "uri": "textures/Standard_baseColor.jpeg"
    }
  ],
  "materials": [
    {
      "doubleSided": true,
      "name": "Standard",
      "normalTexture": {
        "index": 0,
        "scale": 1,
        "texCoord": 0
      },
      "occlusionTexture": {
        "index": 1,
        "strength": 0.46999999999999997,
        "texCoord": 0
      },
      "pbrMetallicRoughness": {
        "baseColorFactor": [
          1,
          1,
          1,
          1
        ],
        "baseColorTexture": {
          "index": 2,
          "texCoord": 0
        },
        "metallicFactor": 0,
        "metallicRoughnessTexture": {
          "index": 1,
          "texCoord": 0
        },
        "roughnessFactor": 0.59999999999999998
      }
    }
  ],
  "meshes": [
    {
      "primitives": [
        {
          "attributes": {
            "NORMAL": 1,
            "POSITION": 0,
            "TANGENT": 2,
            "TEXCOORD_0": 3
          },
          "indices": 4,
          "material": 0,
          "mode": 4
        }
      ]
    },
    {
      "primitives": [
        {
          "attributes": {
            "NORMAL": 6,
            "POSITION": 5,
            "TANGENT": 7,
            "TEXCOORD_0": 8
          },
          "indices": 9,
          "material": 0,
          "mode": 4
        }
      ]
    }
  ],
  "nodes": [
    {
      "children": [
        1
      ],
      "name": "RootNode (gltf orientation matrix)",
      "rotation": [
        -0.70710678118654746,
        -0,
        -0,
        0.70710678118654757
      ]
    },
    {
      "children": [
        2
      ],
      "name": "RootNode (model correction matrix)"
    },
    {
      "children": [
        3,
        4
      ],
      "name": "Tank.obj.cleaner"
    },
    {
      "mesh": 0,
      "name": ""
    },
    {
      "mesh": 1,
      "name": ""
    }
  ],
  "samplers": [
    {
      "magFilter": 9729,
      "minFilter": 9987,
      "wrapS": 10497,
      "wrapT": 10497
    }
  ],
  "scene": 0,
  "scenes": [
    {
      "name": "OSG_Scene",
      "nodes": [
        0
      ]
    }
  ],
  "textures": [
    {
      "sampler": 0,
      "source": 0
    },
    {
      "sampler": 0,
      "source": 1
    },
    {
      "sampler": 0,
      "source": 2
    }
  ]
}

